<svg xmlns="http://www.w3.org/2000/svg" viewBox="0 0 200 232" role="img" aria-labelledby="title desc">
  <title id="title">O fingerspelling landmark guide</title>
  <desc id="desc">Schematic landmark guide derived from an observed class medoid; not a hand photograph.</desc>
  <rect width="200" height="232" rx="18" fill="#071923" />
  <g stroke="#39d9c6" stroke-width="4" stroke-linecap="round" stroke-linejoin="round" opacity="0.92">
    <line x1="98.25" y1="174.00" x2="122.78" y2="132.64" />
    <line x1="122.78" y1="132.64" x2="130.49" y2="94.79" />
    <line x1="130.49" y1="94.79" x2="141.71" y2="66.06" />
    <line x1="141.71" y1="66.06" x2="138.90" y2="42.22" />
    <line x1="98.25" y1="174.00" x2="75.12" y2="79.37" />
    <line x1="75.12" y1="79.37" x2="84.93" y2="39.42" />
    <line x1="84.93" y1="39.42" x2="108.76" y2="28.91" />
    <line x1="108.76" y1="28.91" x2="126.29" y2="31.71" />
    <line x1="75.12" y1="79.37" x2="64.60" y2="79.37" />
    <line x1="64.60" y1="79.37" x2="73.71" y2="33.11" />
    <line x1="73.71" y1="33.11" x2="102.45" y2="24.70" />
    <line x1="102.45" y1="24.70" x2="124.18" y2="33.11" />
    <line x1="64.60" y1="79.37" x2="59.00" y2="81.48" />
    <line x1="59.00" y1="81.48" x2="66.71" y2="33.11" />
    <line x1="66.71" y1="33.11" x2="96.14" y2="24.00" />
    <line x1="96.14" y1="24.00" x2="118.57" y2="31.71" />
    <line x1="59.00" y1="81.48" x2="58.29" y2="82.18" />
    <line x1="58.29" y1="82.18" x2="64.60" y2="40.82" />
    <line x1="64.60" y1="40.82" x2="87.73" y2="28.91" />
    <line x1="87.73" y1="28.91" x2="108.76" y2="31.01" />
    <line x1="98.25" y1="174.00" x2="58.29" y2="82.18" />
  </g>
  <g fill="#d8fff9" stroke="#071923" stroke-width="1.4">
    <circle cx="98.25" cy="174.00" r="3.1" />
    <circle cx="122.78" cy="132.64" r="3.1" />
    <circle cx="130.49" cy="94.79" r="3.1" />
    <circle cx="141.71" cy="66.06" r="3.1" />
    <circle cx="138.90" cy="42.22" r="3.1" />
    <circle cx="75.12" cy="79.37" r="3.1" />
    <circle cx="84.93" cy="39.42" r="3.1" />
    <circle cx="108.76" cy="28.91" r="3.1" />
    <circle cx="126.29" cy="31.71" r="3.1" />
    <circle cx="64.60" cy="79.37" r="3.1" />
    <circle cx="73.71" cy="33.11" r="3.1" />
    <circle cx="102.45" cy="24.70" r="3.1" />
    <circle cx="124.18" cy="33.11" r="3.1" />
    <circle cx="59.00" cy="81.48" r="3.1" />
    <circle cx="66.71" cy="33.11" r="3.1" />
    <circle cx="96.14" cy="24.00" r="3.1" />
    <circle cx="118.57" cy="31.71" r="3.1" />
    <circle cx="58.29" cy="82.18" r="3.1" />
    <circle cx="64.60" cy="40.82" r="3.1" />
    <circle cx="87.73" cy="28.91" r="3.1" />
    <circle cx="108.76" cy="31.01" r="3.1" />
  </g>
  <text x="100" y="207" text-anchor="middle" fill="#ffffff" font-family="system-ui, sans-serif" font-size="30" font-weight="750">O</text>
  <text x="100" y="224" text-anchor="middle" fill="#87a9b5" font-family="system-ui, sans-serif" font-size="8">LANDMARK GUIDE · MEDOID OF 477 SAMPLES</text>
</svg>
